<?xml version="1.0" encoding="utf-8"?>
<!-- Generator: Adobe Illustrator 19.1.0, SVG Export Plug-In . SVG Version: 6.00 Build 0)  -->
<svg version="1.1" id="Layer_1" xmlns="http://www.w3.org/2000/svg" xmlns:xlink="http://www.w3.org/1999/xlink" x="0px" y="0px"
	 viewBox="0 0 600 600" style="enable-background:new 0 0 600 600;" xml:space="preserve">
<style type="text/css">
	.st0{fill:#FFFFFF;}
</style>
<g>
	<path class="st0" d="M353.8,49.1c-13.2,0-23.3,10.7-23.3,23.9c0,13.2,10.1,23.9,23.3,23.9c13.2,0,23.4-10.6,23.4-23.9
		C377.2,59.8,367,49.1,353.8,49.1z M86.2,0v146h427.5V0H86.2z M168,101.6h-5.5V44.3h5.5V101.6z M222.7,49.8h-18.4v51.8h-5.5V49.8
		h-18.4v-5.5h42.2V49.8z M234.6,61.3l-3.2-1.1c2.7-3.8,4.9-9.6,4.8-16.6h5.5C241.1,52.3,237.7,58.8,234.6,61.3z M290.6,88.5
		c-1.3,6.7-7.6,13.9-19.5,13.9c-11.3,0-18.5-8.9-18.5-17.3h5.5c0,5.7,5.1,11.8,13.1,11.8c8.6,0,13.1-4.9,14-9.4
		c1.1-7.1-4.4-10.6-10.9-12.1l-7.7-1.7c-11.9-2.7-13.5-9.6-13.5-14.4c0-9.3,8.8-15.6,18-15.6c10.1,0,18,6.4,18,16.4h-5.5
		c0-6.7-5.4-10.9-12.5-10.9c-6.3,0-12.5,4.1-12.5,10.1c0,3,1.1,7.2,9.1,9.1l7.8,1.7C284.7,72.1,292.3,77.5,290.6,88.5z M353.8,102.4
		c-16.2,0-28.8-13.1-28.8-29.3c0-16.3,12.6-29.4,28.8-29.4c16.3,0,28.8,13.1,28.8,29.4C382.7,89.3,370.1,102.4,353.8,102.4z
		 M437.4,101.6h-5.7l-29.2-48v48h-5.5V44.3h5.9L432,91.9V44.3h5.5V101.6z M417,255.5c5.6,0,10.1,4.5,10.1,10.1h86.6
		c0-59-47.9-106.9-106.9-106.9c-40.2,0-75.1,22.2-93.4,54.9l0-54.9H206.6v212.4c0,3.7-3,6.7-6.7,6.7s-6.7-3-6.7-6.7V158.7H86.2
		v207.1c0,62.7,50.9,113.6,113.6,113.6c48.2,0,89.3-30,105.8-72.3c14.4,42.1,54.2,72.3,101.2,72.3c59,0,106.9-47.9,106.9-106.9
		c0-101.8-105.1-92.1-105.1-109.8C408.7,258.3,412.3,255.5,417,255.5z M396.7,382.6c-5.6,0-10.1-4.5-10.1-10.1v0h-73.3
		c0.1-2.2,0.2-4.4,0.2-6.7l0-46.9c28.4,45.5,91.6,42.8,91.6,56.5C405,379.9,401.3,382.6,396.7,382.6z"/>
	<path class="st0" d="M134.5,540.7l-0.4,3.1h4.5c2.4,0,3.1,0.7,2.9,3.3c-0.2,2.6-5.1,31.2-5.8,33.5c-0.6,2.3-1.3,2.7-4.4,2.7h-3.9
		l-0.3,3.3c0,0,7-0.1,11-0.1c3.9,0,11,0.1,11,0.1l0.3-3.3h-4.1c-3.1,0-3.6-0.4-3.4-2.7c0.2-2.3,5-30.9,5.8-33.5
		c0.7-2.6,1.6-3.3,4-3.3h4.5l0.3-3.1c-1.1,0-7,0.1-11,0.1C141.6,540.9,134.5,540.7,134.5,540.7z M170.3,544.6h-1.9
		c-2.5,8.1-4,11.4-11.2,11.5l-0.3,2.4h4.3c-1.1,5.4-3.2,14.5-4,18.7c-1.3,6.7,0.2,10.5,5.7,10.5c5.6,0,8.1-4.7,8.8-11.8l-2-0.3
		c-0.6,6-2.4,9.3-4.9,9.3c-2.2,0-2.9-1.7-1.7-7.9l3.7-18.5l7.3,0.1l0.3-2.5l-7.2,0.2C167.9,553.2,169.4,548,170.3,544.6z M191,555.4
		c-6.4,0-11,3.1-12.2,7.6c-1.3,5.2,0.9,8.7,7.9,10.7c6.7,1.9,7.8,4.1,7,7.4c-0.9,2.9-4.3,4.4-8.6,4.4c-4.1,0-7-1.3-7.9-3.4
		c1.7,0.6,3.9-0.1,4.3-2.1c0.4-1.8-0.7-3.2-2.7-3.2c-2,0-3.5,1.3-3.9,3.1c-1,5.2,3.8,7.8,10.1,7.8c6.8,0,11.4-3.2,12.6-8
		c1.2-4.9-0.5-8.8-8.5-11c-5.8-1.6-7.4-3.9-6.2-7.2c0.8-2.3,3.7-4.1,8-4.1c3.4,0,5.8,1.1,6.8,3.1c-1.9-0.4-4,0.3-4.3,2.4
		c-0.3,1.7,0.8,3,2.7,3c1.9,0,3.5-1.1,3.9-3.4C200.5,557.9,196.8,555.4,191,555.4z M232.1,539.4c-13.2,0-24,8.2-26.6,24.1
		c-2.6,15.9,3.8,24.6,18.4,24.6c12.9,0,23.9-8.5,26.6-24.6C253.1,547.5,246.5,539.4,232.1,539.4z M243.7,563.5
		c-2.5,15-9.4,21.7-19.4,21.7c-10.6,0-14.7-5.7-12-21.6c2.5-15.1,9.8-21.2,19.3-21.2C241.7,542.3,246.4,547.9,243.7,563.5z
		 M285.5,585c-2.5,0-2.5-2.5-1.1-8.3l2.1-7.8c2.6-9.8,0.6-13.6-5.5-13.6c-4.4,0-8.4,2.5-11.3,8.9c0.7-5.3-0.4-8.9-5.2-8.9
		c-5.8,0-8.2,7.1-8.8,12.2l2.1,0.2c1-6,3-9.7,5.2-9.7c2.4,0,2.3,2.4,0.8,9.1c-0.7,3.2-3.5,16.3-4.4,19.5c0,0,1.8-0.1,2.7-0.1
		c1,0,2.8,0.1,2.8,0.1l1.7-8.4c3.3-15.7,8-20.2,12.2-20.2c3.1,0,4.4,2.7,2.2,10.8l-2.2,8.1c-2,7.2-0.3,10.7,4.8,10.7
		c5.7,0,8.2-6.3,8.8-11.8l-2-0.3C289.7,581.2,288.1,585,285.5,585z M346.8,543.9l0.4-3.1c-1.1,0-6.1,0.1-9.6,0.1
		c-3.5,0-9.4-0.1-9.4-0.1l-0.4,3.1h3.5c2.4,0,3.3,1.1,3.1,3.7c-0.3,2.6-2.1,13.1-3.5,20.7c-2.1,11.9-7.4,15.7-15.7,15.7
		c-8.3,0-12.4-3.9-10.4-15.7c0.8-5.5,2.8-18.5,3.5-20.7c0.9-2.9,1.9-3.7,4.4-3.7h3.7l0.4-3.1c-1.1,0-6.7,0.1-10.6,0.1
		c-3.5,0-10.5-0.1-10.5-0.1l-0.5,3.1h3.7c2.5,0,3.1,0.9,2.9,3.7c-0.3,2.8-3,18.4-3.3,20.1c-2.5,14.3,3,20.1,15.7,20.1
		c12.4,0,19.5-7,21.7-20.1c0,0,2.8-17.5,3.4-20.1c0.5-2.6,1.7-3.8,4.1-3.8H346.8z M357.2,555.4c-6.4,0-11,3.1-12.2,7.6
		c-1.3,5.2,0.9,8.7,7.9,10.7c6.7,1.9,7.8,4.1,7,7.4c-0.9,2.9-4.3,4.4-8.6,4.4c-4.1,0-7-1.3-7.9-3.4c1.7,0.6,3.9-0.1,4.3-2.1
		c0.4-1.8-0.7-3.2-2.7-3.2c-2,0-3.5,1.3-3.9,3.1c-1,5.2,3.8,7.8,10.1,7.8c6.8,0,11.4-3.2,12.6-8c1.2-4.9-0.5-8.8-8.5-11
		c-5.8-1.6-7.4-3.9-6.2-7.2c0.8-2.3,3.7-4.1,8-4.1c3.4,0,5.8,1.1,6.8,3.1c-1.9-0.4-4,0.3-4.3,2.4c-0.3,1.7,0.8,3,2.7,3
		c1.9,0,3.5-1.1,3.9-3.4C366.6,557.9,362.9,555.4,357.2,555.4z M374.1,578.8c-2.4,0-4.4,1.6-4.6,4.3c-0.3,2.8,1.5,4.2,3.9,4.2
		c2.5,0,4.5-1.5,4.7-4.2C378.2,580.5,376.6,578.8,374.1,578.8z M401.4,555.4c-9.6,0-14.5,10.2-15.7,18.2
		c-1.4,10.2,3.1,14.1,10.2,14.1c9.8,0,14.7-9.9,15.8-19.5C412.7,559,408.2,555.4,401.4,555.4z M406.2,567.2
		c-1.5,11.4-5.2,18.1-10.2,18.1c-3.9,0-5.8-2.6-4.8-9.8c1.5-10.8,5.2-18,10.2-18C405.3,557.5,407.2,559.9,406.2,567.2z M436.7,555.4
		c-2.7,0-5.6,1.5-7.5,5.2c-0.2-3.1-1.7-5.2-5.4-5.2c-5.4,0-8,6.8-8.6,12.2l2.1,0.2c0.9-5.4,2.8-9.7,5.5-9.7c2.2,0,1.9,2.4,0.5,9.1
		c-1,4.8-3.1,14.7-4.3,19.5c0,0,1.7-0.1,2.7-0.1c0.9,0,2.7,0.1,2.7,0.1l4.2-19.5c1.6-7.5,4.8-9.6,7.6-9.6c2.1,0,3.3,1.4,3.4,3.8
		c-1.9-1-5-0.1-5.4,2.3c-0.4,2.3,1,3.5,2.9,3.5c2.3,0,4.1-1.5,4.6-5.2C442.2,557.7,440.2,555.4,436.7,555.4z M469.7,553.6
		c-0.7,4.5-3,6.8-4.8,8.2c-0.5-4.1-3.1-6.5-7.4-6.5c-6.9,0-12.9,6.6-14.5,18.7c-1.3,10,2.3,13.6,7.5,13.6c4.3,0,8.2-3.1,10.7-8.8
		l-1.1,5.5c-1.7,8.8-4.4,13.8-11.2,13.8c-3.7,0-5.4-1.1-5.8-2.7c2.1,1,4.7,0.1,5.1-2.3c0.4-2.1-0.9-3.5-3-3.5
		c-2.1,0-3.5,1.2-4.1,3.1c-1.2,3.5,1.2,7.2,7.8,7.2c8.6,0,14.9-5.7,16.9-17.8c1.1-6.6,4.1-21.5,5.7-28.6H469.7z M463.1,568.7
		c-2,10.8-6.5,16.3-11,16.3c-3.9,0-5-3.1-3.7-11c2-12,5.7-16,10.1-16C462.9,558,464.4,561.4,463.1,568.7z"/>
</g>
</svg>
